<?xml version="1.0" encoding="UTF-8" standalone="no"?>
<!DOCTYPE svg PUBLIC "-//W3C//DTD SVG 1.1//EN"
 "http://www.w3.org/Graphics/SVG/1.1/DTD/svg11.dtd">
<!-- Generated by graphviz version 2.38.0 (20140413.2041)
 -->
<!-- Title: Slider::getValue Pages: 1 -->
<svg width="288pt" height="66pt"
 viewBox="0.00 0.00 288.00 66.00" xmlns="http://www.w3.org/2000/svg" xmlns:xlink="http://www.w3.org/1999/xlink">
<g id="graph0" class="graph" transform="scale(1 1) rotate(0) translate(4 62)">
<title>Slider::getValue</title>
<!-- Node1 -->
<g id="node1" class="node"><title>Node1</title>
<polygon fill="#bfbfbf" stroke="black" points="0,-19.5 0,-38.5 92,-38.5 92,-19.5 0,-19.5"/>
<text text-anchor="middle" x="46" y="-26.5" font-family="Helvetica,sans-Serif" font-size="10.00">Slider::getValue</text>
</g>
<!-- Node2 -->
<g id="node2" class="node"><title>Node2</title>
<g id="a_node2"><a xlink:href="classSlider.html#a8a7b5110db76b3975b6797f27a4f3017" target="_top" xlink:title="Slider::onMouseButtonDown">
<polygon fill="none" stroke="black" points="128,-38.5 128,-57.5 280,-57.5 280,-38.5 128,-38.5"/>
<text text-anchor="middle" x="204" y="-45.5" font-family="Helvetica,sans-Serif" font-size="10.00">Slider::onMouseButtonDown</text>
</a>
</g>
</g>
<!-- Node1&#45;&gt;Node2 -->
<g id="edge1" class="edge"><title>Node1&#45;&gt;Node2</title>
<path fill="none" stroke="midnightblue" d="M102.319,-35.7376C110.55,-36.74 119.15,-37.7875 127.706,-38.8296"/>
<polygon fill="midnightblue" stroke="midnightblue" points="102.471,-32.2304 92.1217,-34.4956 101.625,-39.179 102.471,-32.2304"/>
</g>
<!-- Node3 -->
<g id="node3" class="node"><title>Node3</title>
<g id="a_node3"><a xlink:href="classSlider.html#ad499d5dd60e6c489814b30df2f2b46b4" target="_top" xlink:title="Slider::onMouseMove">
<polygon fill="none" stroke="black" points="144.5,-0.5 144.5,-19.5 263.5,-19.5 263.5,-0.5 144.5,-0.5"/>
<text text-anchor="middle" x="204" y="-7.5" font-family="Helvetica,sans-Serif" font-size="10.00">Slider::onMouseMove</text>
</a>
</g>
</g>
<!-- Node1&#45;&gt;Node3 -->
<g id="edge2" class="edge"><title>Node1&#45;&gt;Node3</title>
<path fill="none" stroke="midnightblue" d="M102.306,-22.2641C115.921,-20.6057 130.547,-18.8244 144.317,-17.1473"/>
<polygon fill="midnightblue" stroke="midnightblue" points="101.625,-18.821 92.1217,-23.5044 102.471,-25.7696 101.625,-18.821"/>
</g>
</g>
</svg>
