<?xml version="1.0" encoding="UTF-8" standalone="no"?>
<!DOCTYPE svg PUBLIC "-//W3C//DTD SVG 1.1//EN"
 "http://www.w3.org/Graphics/SVG/1.1/DTD/svg11.dtd">
<!-- Generated by graphviz version 2.38.0 (20140413.2041)
 -->
<!-- Title: GameService Pages: 1 -->
<svg width="133pt" height="287pt"
 viewBox="0.00 0.00 133.00 287.00" xmlns="http://www.w3.org/2000/svg" xmlns:xlink="http://www.w3.org/1999/xlink">
<g id="graph0" class="graph" transform="scale(1 1) rotate(0) translate(4 283)">
<title>GameService</title>
<!-- Node1 -->
<g id="node1" class="node"><title>Node1</title>
<polygon fill="#bfbfbf" stroke="black" points="11,-0.5 11,-68.5 111,-68.5 111,-0.5 11,-0.5"/>
<text text-anchor="middle" x="61" y="-56.5" font-family="Helvetica,sans-Serif" font-size="10.00">GameService</text>
<polyline fill="none" stroke="black" points="11,-49.5 111,-49.5 "/>
<text text-anchor="middle" x="61" y="-37.5" font-family="Helvetica,sans-Serif" font-size="10.00"> </text>
<polyline fill="none" stroke="black" points="11,-30.5 111,-30.5 "/>
<text text-anchor="start" x="19" y="-18.5" font-family="Helvetica,sans-Serif" font-size="10.00">+ GameService()</text>
<text text-anchor="start" x="19" y="-7.5" font-family="Helvetica,sans-Serif" font-size="10.00"># GetService()</text>
</g>
<!-- Node2 -->
<g id="node2" class="node"><title>Node2</title>
<g id="a_node2"><a xlink:href="structTupleType.html" target="_top" xlink:title="{TupleType\&lt; TypeList \&gt;\n||}">
<polygon fill="none" stroke="black" points="0,-116.5 0,-173.5 122,-173.5 122,-116.5 0,-116.5"/>
<text text-anchor="middle" x="61" y="-161.5" font-family="Helvetica,sans-Serif" font-size="10.00">TupleType&lt; TypeList &gt;</text>
<polyline fill="none" stroke="black" points="0,-154.5 122,-154.5 "/>
<text text-anchor="middle" x="61" y="-142.5" font-family="Helvetica,sans-Serif" font-size="10.00"> </text>
<polyline fill="none" stroke="black" points="0,-135.5 122,-135.5 "/>
<text text-anchor="middle" x="61" y="-123.5" font-family="Helvetica,sans-Serif" font-size="10.00"> </text>
</a>
</g>
</g>
<!-- Node2&#45;&gt;Node1 -->
<g id="edge1" class="edge"><title>Node2&#45;&gt;Node1</title>
<path fill="none" stroke="#404040" d="M61,-116.34C61,-105.529 61,-92.847 61,-80.7745"/>
<polygon fill="none" stroke="#404040" points="61.0001,-80.5186 57,-74.5186 61,-68.5186 65,-74.5185 61.0001,-80.5186"/>
<text text-anchor="middle" x="92.5" y="-90" font-family="Helvetica,sans-Serif" font-size="10.00"> &#45;m_Services</text>
</g>
<!-- Node3 -->
<g id="node3" class="node"><title>Node3</title>
<g id="a_node3"><a xlink:href="structTupleType.html" target="_top" xlink:title="TupleType::type returns std::tuple&lt;All fields inside the TypeList&gt; ">
<polygon fill="none" stroke="black" points="10.5,-221.5 10.5,-278.5 111.5,-278.5 111.5,-221.5 10.5,-221.5"/>
<text text-anchor="middle" x="61" y="-266.5" font-family="Helvetica,sans-Serif" font-size="10.00">TupleType&lt; List &gt;</text>
<polyline fill="none" stroke="black" points="10.5,-259.5 111.5,-259.5 "/>
<text text-anchor="middle" x="61" y="-247.5" font-family="Helvetica,sans-Serif" font-size="10.00"> </text>
<polyline fill="none" stroke="black" points="10.5,-240.5 111.5,-240.5 "/>
<text text-anchor="middle" x="61" y="-228.5" font-family="Helvetica,sans-Serif" font-size="10.00"> </text>
</a>
</g>
</g>
<!-- Node3&#45;&gt;Node2 -->
<g id="edge2" class="edge"><title>Node3&#45;&gt;Node2</title>
<path fill="none" stroke="orange" d="M61,-211.286C61,-198.839 61,-185.233 61,-173.678"/>
<polygon fill="orange" stroke="orange" points="57.5001,-211.398 61,-221.398 64.5001,-211.398 57.5001,-211.398"/>
<text text-anchor="middle" x="93" y="-195" font-family="Helvetica,sans-Serif" font-size="10.00"> &lt; TypeList &gt;</text>
</g>
</g>
</svg>
