<?xml version="1.0" encoding="UTF-8" standalone="no"?>
<!DOCTYPE svg PUBLIC "-//W3C//DTD SVG 1.1//EN"
 "http://www.w3.org/Graphics/SVG/1.1/DTD/svg11.dtd">
<!-- Generated by graphviz version 2.38.0 (20140413.2041)
 -->
<!-- Title: Slider::onMouseButtonDown Pages: 1 -->
<svg width="326pt" height="104pt"
 viewBox="0.00 0.00 326.00 104.00" xmlns="http://www.w3.org/2000/svg" xmlns:xlink="http://www.w3.org/1999/xlink">
<g id="graph0" class="graph" transform="scale(1 1) rotate(0) translate(4 100)">
<title>Slider::onMouseButtonDown</title>
<!-- Node1 -->
<g id="node1" class="node"><title>Node1</title>
<polygon fill="#bfbfbf" stroke="black" points="0,-38.5 0,-57.5 152,-57.5 152,-38.5 0,-38.5"/>
<text text-anchor="middle" x="76" y="-45.5" font-family="Helvetica,sans-Serif" font-size="10.00">Slider::onMouseButtonDown</text>
</g>
<!-- Node2 -->
<g id="node2" class="node"><title>Node2</title>
<g id="a_node2"><a xlink:href="classSlider.html#a8733bd6dbaced97a10f28e2f03d6b0d0" target="_top" xlink:title="Checks if the mouses is over the line part of the slider checks if the mouse is over the sliderLine...">
<polygon fill="none" stroke="black" points="194.5,-76.5 194.5,-95.5 311.5,-95.5 311.5,-76.5 194.5,-76.5"/>
<text text-anchor="middle" x="253" y="-83.5" font-family="Helvetica,sans-Serif" font-size="10.00">Slider::overSliderLine</text>
</a>
</g>
</g>
<!-- Node1&#45;&gt;Node2 -->
<g id="edge1" class="edge"><title>Node1&#45;&gt;Node2</title>
<path fill="none" stroke="midnightblue" d="M121.16,-57.589C144.565,-62.6713 173.505,-68.9554 198.212,-74.3203"/>
<polygon fill="midnightblue" stroke="midnightblue" points="197.643,-77.7782 208.158,-76.4799 199.128,-70.9376 197.643,-77.7782"/>
</g>
<!-- Node3 -->
<g id="node3" class="node"><title>Node3</title>
<g id="a_node3"><a xlink:href="classSlider.html#a1267136202d18a8a0bbb096b3d2e0360" target="_top" xlink:title="finds the slider&#39;s value based on where the button is on the line uses the button&#39;s coordinates to ca...">
<polygon fill="none" stroke="black" points="207,-38.5 207,-57.5 299,-57.5 299,-38.5 207,-38.5"/>
<text text-anchor="middle" x="253" y="-45.5" font-family="Helvetica,sans-Serif" font-size="10.00">Slider::getValue</text>
</a>
</g>
</g>
<!-- Node1&#45;&gt;Node3 -->
<g id="edge2" class="edge"><title>Node1&#45;&gt;Node3</title>
<path fill="none" stroke="midnightblue" d="M152.231,-48C167.14,-48 182.534,-48 196.635,-48"/>
<polygon fill="midnightblue" stroke="midnightblue" points="196.649,-51.5001 206.649,-48 196.649,-44.5001 196.649,-51.5001"/>
</g>
<!-- Node4 -->
<g id="node4" class="node"><title>Node4</title>
<g id="a_node4"><a xlink:href="classSlider.html#ae9844f0d5c0f1d5fcb4f3a1b52120f51" target="_top" xlink:title="Checks if the mouse is over the button of the slider checks if the mouse is over the sliderButton...">
<polygon fill="none" stroke="black" points="188,-0.5 188,-19.5 318,-19.5 318,-0.5 188,-0.5"/>
<text text-anchor="middle" x="253" y="-7.5" font-family="Helvetica,sans-Serif" font-size="10.00">Slider::overSliderButton</text>
</a>
</g>
</g>
<!-- Node1&#45;&gt;Node4 -->
<g id="edge3" class="edge"><title>Node1&#45;&gt;Node4</title>
<path fill="none" stroke="midnightblue" d="M121.16,-38.411C144.565,-33.3287 173.505,-27.0446 198.212,-21.6797"/>
<polygon fill="midnightblue" stroke="midnightblue" points="199.128,-25.0624 208.158,-19.5201 197.643,-18.2218 199.128,-25.0624"/>
</g>
</g>
</svg>
