<?xml version="1.0" encoding="UTF-8" standalone="no"?>
<!DOCTYPE svg PUBLIC "-//W3C//DTD SVG 1.1//EN"
 "http://www.w3.org/Graphics/SVG/1.1/DTD/svg11.dtd">
<!-- Generated by graphviz version 2.38.0 (20140413.2041)
 -->
<!-- Title: Game Pages: 1 -->
<svg width="200pt" height="364pt"
 viewBox="0.00 0.00 199.50 364.00" xmlns="http://www.w3.org/2000/svg" xmlns:xlink="http://www.w3.org/1999/xlink">
<g id="graph0" class="graph" transform="scale(1 1) rotate(0) translate(4 360)">
<title>Game</title>
<!-- Node1 -->
<g id="node1" class="node"><title>Node1</title>
<polygon fill="#bfbfbf" stroke="black" points="24,-0.5 24,-134.5 113,-134.5 113,-0.5 24,-0.5"/>
<text text-anchor="middle" x="68.5" y="-122.5" font-family="Helvetica,sans-Serif" font-size="10.00">Game</text>
<polyline fill="none" stroke="black" points="24,-115.5 113,-115.5 "/>
<text text-anchor="start" x="32" y="-103.5" font-family="Helvetica,sans-Serif" font-size="10.00">&#45; m_UILoop</text>
<text text-anchor="start" x="32" y="-92.5" font-family="Helvetica,sans-Serif" font-size="10.00">&#45; m_EventLoop</text>
<polyline fill="none" stroke="black" points="24,-85.5 113,-85.5 "/>
<text text-anchor="start" x="32" y="-73.5" font-family="Helvetica,sans-Serif" font-size="10.00">+ Game()</text>
<text text-anchor="start" x="32" y="-62.5" font-family="Helvetica,sans-Serif" font-size="10.00">+ ~Game()</text>
<text text-anchor="start" x="32" y="-51.5" font-family="Helvetica,sans-Serif" font-size="10.00">+ initialize()</text>
<text text-anchor="start" x="32" y="-40.5" font-family="Helvetica,sans-Serif" font-size="10.00">+ run()</text>
<text text-anchor="start" x="32" y="-29.5" font-family="Helvetica,sans-Serif" font-size="10.00">+ shutdown()</text>
<text text-anchor="start" x="32" y="-18.5" font-family="Helvetica,sans-Serif" font-size="10.00">+ mainMenu()</text>
<text text-anchor="start" x="32" y="-7.5" font-family="Helvetica,sans-Serif" font-size="10.00">&#45; LoopMain()</text>
</g>
<!-- Node2 -->
<g id="node2" class="node"><title>Node2</title>
<g id="a_node2"><a xlink:href="structTupleType.html" target="_top" xlink:title="{TupleType\&lt; GameService\l::Types \&gt;\n||}">
<polygon fill="none" stroke="black" points="0,-182.5 0,-250.5 137,-250.5 137,-182.5 0,-182.5"/>
<text text-anchor="start" x="8" y="-238.5" font-family="Helvetica,sans-Serif" font-size="10.00">TupleType&lt; GameService</text>
<text text-anchor="middle" x="68.5" y="-227.5" font-family="Helvetica,sans-Serif" font-size="10.00">::Types &gt;</text>
<polyline fill="none" stroke="black" points="0,-220.5 137,-220.5 "/>
<text text-anchor="middle" x="68.5" y="-208.5" font-family="Helvetica,sans-Serif" font-size="10.00"> </text>
<polyline fill="none" stroke="black" points="0,-201.5 137,-201.5 "/>
<text text-anchor="middle" x="68.5" y="-189.5" font-family="Helvetica,sans-Serif" font-size="10.00"> </text>
</a>
</g>
</g>
<!-- Node2&#45;&gt;Node1 -->
<g id="edge1" class="edge"><title>Node2&#45;&gt;Node1</title>
<path fill="none" stroke="#404040" d="M68.5,-182.143C68.5,-171.597 68.5,-159.46 68.5,-147.13"/>
<polygon fill="none" stroke="#404040" points="68.5001,-146.787 64.5,-140.787 68.5,-134.787 72.5,-140.787 68.5001,-146.787"/>
<text text-anchor="middle" x="113" y="-156" font-family="Helvetica,sans-Serif" font-size="10.00"> &#45;m_GameContext</text>
</g>
<!-- Node3 -->
<g id="node3" class="node"><title>Node3</title>
<g id="a_node3"><a xlink:href="structTupleType.html" target="_top" xlink:title="TupleType::type returns std::tuple&lt;All fields inside the TypeList&gt; ">
<polygon fill="none" stroke="black" points="18,-298.5 18,-355.5 119,-355.5 119,-298.5 18,-298.5"/>
<text text-anchor="middle" x="68.5" y="-343.5" font-family="Helvetica,sans-Serif" font-size="10.00">TupleType&lt; List &gt;</text>
<polyline fill="none" stroke="black" points="18,-336.5 119,-336.5 "/>
<text text-anchor="middle" x="68.5" y="-324.5" font-family="Helvetica,sans-Serif" font-size="10.00"> </text>
<polyline fill="none" stroke="black" points="18,-317.5 119,-317.5 "/>
<text text-anchor="middle" x="68.5" y="-305.5" font-family="Helvetica,sans-Serif" font-size="10.00"> </text>
</a>
</g>
</g>
<!-- Node3&#45;&gt;Node2 -->
<g id="edge2" class="edge"><title>Node3&#45;&gt;Node2</title>
<path fill="none" stroke="orange" d="M68.5,-287.987C68.5,-275.771 68.5,-262.346 68.5,-250.519"/>
<polygon fill="orange" stroke="orange" points="65.0001,-288.34 68.5,-298.34 72.0001,-288.34 65.0001,-288.34"/>
<text text-anchor="middle" x="130" y="-272" font-family="Helvetica,sans-Serif" font-size="10.00"> &lt; GameService::Types &gt;</text>
</g>
</g>
</svg>
