<?xml version="1.0" encoding="UTF-8" standalone="no"?>
<!DOCTYPE svg PUBLIC "-//W3C//DTD SVG 1.1//EN"
 "http://www.w3.org/Graphics/SVG/1.1/DTD/svg11.dtd">
<!-- Generated by graphviz version 2.38.0 (20140413.2041)
 -->
<!-- Title: src/Game.hxx Pages: 1 -->
<svg width="763pt" height="252pt"
 viewBox="0.00 0.00 762.50 252.00" xmlns="http://www.w3.org/2000/svg" xmlns:xlink="http://www.w3.org/1999/xlink">
<g id="graph0" class="graph" transform="scale(1 1) rotate(0) translate(4 248)">
<title>src/Game.hxx</title>
<!-- Node1 -->
<g id="node1" class="node"><title>Node1</title>
<polygon fill="#bfbfbf" stroke="black" points="491,-224.5 491,-243.5 574,-243.5 574,-224.5 491,-224.5"/>
<text text-anchor="middle" x="532.5" y="-231.5" font-family="Helvetica,sans-Serif" font-size="10.00">src/Game.hxx</text>
</g>
<!-- Node2 -->
<g id="node2" class="node"><title>Node2</title>
<g id="a_node2"><a xlink:href="ScriptEngine_8hxx.html" target="_top" xlink:title="Scripting/ScriptEngine.hxx">
<polygon fill="none" stroke="black" points="60,-168.5 60,-187.5 201,-187.5 201,-168.5 60,-168.5"/>
<text text-anchor="middle" x="130.5" y="-175.5" font-family="Helvetica,sans-Serif" font-size="10.00">Scripting/ScriptEngine.hxx</text>
</a>
</g>
</g>
<!-- Node1&#45;&gt;Node2 -->
<g id="edge1" class="edge"><title>Node1&#45;&gt;Node2</title>
<path fill="none" stroke="midnightblue" d="M490.993,-227.424C423.331,-218.335 288.371,-200.207 204.144,-188.893"/>
<polygon fill="midnightblue" stroke="midnightblue" points="204.509,-185.41 194.132,-187.548 203.577,-192.348 204.509,-185.41"/>
</g>
<!-- Node3 -->
<g id="node3" class="node"><title>Node3</title>
<g id="a_node3"><a xlink:href="MessageQueue_8hxx.html" target="_top" xlink:title="util/MessageQueue.hxx">
<polygon fill="none" stroke="black" points="219.5,-168.5 219.5,-187.5 347.5,-187.5 347.5,-168.5 219.5,-168.5"/>
<text text-anchor="middle" x="283.5" y="-175.5" font-family="Helvetica,sans-Serif" font-size="10.00">util/MessageQueue.hxx</text>
</a>
</g>
</g>
<!-- Node1&#45;&gt;Node3 -->
<g id="edge2" class="edge"><title>Node1&#45;&gt;Node3</title>
<path fill="none" stroke="midnightblue" d="M493.045,-224.444C449.608,-215.023 379.714,-199.866 332.724,-189.675"/>
<polygon fill="midnightblue" stroke="midnightblue" points="333.285,-186.215 322.77,-187.516 331.801,-193.056 333.285,-186.215"/>
</g>
<!-- Node10 -->
<g id="node10" class="node"><title>Node10</title>
<g id="a_node10"><a xlink:href="Meta_8hxx.html" target="_top" xlink:title="util/Meta.hxx">
<polygon fill="none" stroke="black" points="571,-56.5 571,-75.5 648,-75.5 648,-56.5 571,-56.5"/>
<text text-anchor="middle" x="609.5" y="-63.5" font-family="Helvetica,sans-Serif" font-size="10.00">util/Meta.hxx</text>
</a>
</g>
</g>
<!-- Node1&#45;&gt;Node10 -->
<g id="edge9" class="edge"><title>Node1&#45;&gt;Node10</title>
<path fill="none" stroke="midnightblue" d="M543.22,-224.46C552.983,-216.136 567.117,-202.625 575.5,-188 594.423,-154.988 603.342,-110.805 607.106,-85.9881"/>
<polygon fill="midnightblue" stroke="midnightblue" points="610.615,-86.1624 608.526,-75.7757 603.682,-85.1986 610.615,-86.1624"/>
</g>
<!-- Node15 -->
<g id="node15" class="node"><title>Node15</title>
<g id="a_node15"><a xlink:href="Events_8hxx.html" target="_top" xlink:title="Events.hxx">
<polygon fill="none" stroke="black" points="498.5,-168.5 498.5,-187.5 566.5,-187.5 566.5,-168.5 498.5,-168.5"/>
<text text-anchor="middle" x="532.5" y="-175.5" font-family="Helvetica,sans-Serif" font-size="10.00">Events.hxx</text>
</a>
</g>
</g>
<!-- Node1&#45;&gt;Node15 -->
<g id="edge14" class="edge"><title>Node1&#45;&gt;Node15</title>
<path fill="none" stroke="midnightblue" d="M532.5,-224.083C532.5,-217.006 532.5,-206.861 532.5,-197.986"/>
<polygon fill="midnightblue" stroke="midnightblue" points="536,-197.751 532.5,-187.751 529,-197.751 536,-197.751"/>
</g>
<!-- Node22 -->
<g id="node22" class="node"><title>Node22</title>
<polygon fill="none" stroke="#bfbfbf" points="656.5,-168.5 656.5,-187.5 704.5,-187.5 704.5,-168.5 656.5,-168.5"/>
<text text-anchor="middle" x="680.5" y="-175.5" font-family="Helvetica,sans-Serif" font-size="10.00">thread</text>
</g>
<!-- Node1&#45;&gt;Node22 -->
<g id="edge24" class="edge"><title>Node1&#45;&gt;Node22</title>
<path fill="none" stroke="midnightblue" d="M555.951,-224.444C580.633,-215.438 619.685,-201.189 647.477,-191.049"/>
<polygon fill="midnightblue" stroke="midnightblue" points="648.964,-194.232 657.159,-187.516 646.565,-187.656 648.964,-194.232"/>
</g>
<!-- Node4 -->
<g id="node4" class="node"><title>Node4</title>
<polygon fill="none" stroke="#bfbfbf" points="185,-112.5 185,-131.5 288,-131.5 288,-112.5 185,-112.5"/>
<text text-anchor="middle" x="236.5" y="-119.5" font-family="Helvetica,sans-Serif" font-size="10.00">condition_variable</text>
</g>
<!-- Node3&#45;&gt;Node4 -->
<g id="edge3" class="edge"><title>Node3&#45;&gt;Node4</title>
<path fill="none" stroke="midnightblue" d="M275.739,-168.083C268.963,-160.298 258.957,-148.801 250.745,-139.367"/>
<polygon fill="midnightblue" stroke="midnightblue" points="253.322,-136.996 244.117,-131.751 248.042,-141.592 253.322,-136.996"/>
</g>
<!-- Node5 -->
<g id="node5" class="node"><title>Node5</title>
<polygon fill="none" stroke="#bfbfbf" points="306,-112.5 306,-131.5 353,-131.5 353,-112.5 306,-112.5"/>
<text text-anchor="middle" x="329.5" y="-119.5" font-family="Helvetica,sans-Serif" font-size="10.00">mutex</text>
</g>
<!-- Node3&#45;&gt;Node5 -->
<g id="edge4" class="edge"><title>Node3&#45;&gt;Node5</title>
<path fill="none" stroke="midnightblue" d="M291.096,-168.083C297.727,-160.298 307.521,-148.801 315.558,-139.367"/>
<polygon fill="midnightblue" stroke="midnightblue" points="318.225,-141.633 322.045,-131.751 312.896,-137.094 318.225,-141.633"/>
</g>
<!-- Node6 -->
<g id="node6" class="node"><title>Node6</title>
<polygon fill="none" stroke="#bfbfbf" points="371,-112.5 371,-131.5 418,-131.5 418,-112.5 371,-112.5"/>
<text text-anchor="middle" x="394.5" y="-119.5" font-family="Helvetica,sans-Serif" font-size="10.00">deque</text>
</g>
<!-- Node3&#45;&gt;Node6 -->
<g id="edge5" class="edge"><title>Node3&#45;&gt;Node6</title>
<path fill="none" stroke="midnightblue" d="M301.334,-168.324C319.216,-159.625 346.975,-146.12 367.546,-136.113"/>
<polygon fill="midnightblue" stroke="midnightblue" points="369.249,-139.177 376.71,-131.655 366.187,-132.882 369.249,-139.177"/>
</g>
<!-- Node7 -->
<g id="node7" class="node"><title>Node7</title>
<polygon fill="none" stroke="#bfbfbf" points="0,-112.5 0,-131.5 47,-131.5 47,-112.5 0,-112.5"/>
<text text-anchor="middle" x="23.5" y="-119.5" font-family="Helvetica,sans-Serif" font-size="10.00">vector</text>
</g>
<!-- Node3&#45;&gt;Node7 -->
<g id="edge6" class="edge"><title>Node3&#45;&gt;Node7</title>
<path fill="none" stroke="midnightblue" d="M234.333,-168.46C190.164,-160.527 123.345,-147.881 56.9943,-132.226"/>
<polygon fill="midnightblue" stroke="midnightblue" points="57.7499,-128.808 47.2109,-129.895 56.1271,-135.617 57.7499,-128.808"/>
</g>
<!-- Node8 -->
<g id="node8" class="node"><title>Node8</title>
<polygon fill="none" stroke="#bfbfbf" points="65,-112.5 65,-131.5 128,-131.5 128,-112.5 65,-112.5"/>
<text text-anchor="middle" x="96.5" y="-119.5" font-family="Helvetica,sans-Serif" font-size="10.00">functional</text>
</g>
<!-- Node3&#45;&gt;Node8 -->
<g id="edge7" class="edge"><title>Node3&#45;&gt;Node8</title>
<path fill="none" stroke="midnightblue" d="M253.869,-168.444C222,-159.241 171.167,-144.562 135.936,-134.388"/>
<polygon fill="midnightblue" stroke="midnightblue" points="136.571,-130.928 125.992,-131.516 134.628,-137.653 136.571,-130.928"/>
</g>
<!-- Node9 -->
<g id="node9" class="node"><title>Node9</title>
<polygon fill="none" stroke="#bfbfbf" points="176,-56.5 176,-75.5 229,-75.5 229,-56.5 176,-56.5"/>
<text text-anchor="middle" x="202.5" y="-63.5" font-family="Helvetica,sans-Serif" font-size="10.00">ciso646</text>
</g>
<!-- Node3&#45;&gt;Node9 -->
<g id="edge8" class="edge"><title>Node3&#45;&gt;Node9</title>
<path fill="none" stroke="midnightblue" d="M231.97,-168.44C210.767,-162.104 188.232,-151.098 175.5,-132 165.284,-116.676 176.456,-96.8655 187.373,-83.1629"/>
<polygon fill="midnightblue" stroke="midnightblue" points="190.082,-85.381 193.944,-75.5152 184.772,-80.8192 190.082,-85.381"/>
</g>
<!-- Node11 -->
<g id="node11" class="node"><title>Node11</title>
<polygon fill="none" stroke="#bfbfbf" points="609,-0.5 609,-19.5 668,-19.5 668,-0.5 609,-0.5"/>
<text text-anchor="middle" x="638.5" y="-7.5" font-family="Helvetica,sans-Serif" font-size="10.00">iostream</text>
</g>
<!-- Node10&#45;&gt;Node11 -->
<g id="edge10" class="edge"><title>Node10&#45;&gt;Node11</title>
<path fill="none" stroke="midnightblue" d="M614.289,-56.083C618.258,-48.6913 624.025,-37.9533 628.935,-28.8111"/>
<polygon fill="midnightblue" stroke="midnightblue" points="632.153,-30.217 633.8,-19.7511 625.986,-26.9051 632.153,-30.217"/>
</g>
<!-- Node12 -->
<g id="node12" class="node"><title>Node12</title>
<polygon fill="none" stroke="#bfbfbf" points="686.5,-0.5 686.5,-19.5 754.5,-19.5 754.5,-0.5 686.5,-0.5"/>
<text text-anchor="middle" x="720.5" y="-7.5" font-family="Helvetica,sans-Serif" font-size="10.00">type_traits</text>
</g>
<!-- Node10&#45;&gt;Node12 -->
<g id="edge11" class="edge"><title>Node10&#45;&gt;Node12</title>
<path fill="none" stroke="midnightblue" d="M627.334,-56.324C645.216,-47.6247 672.975,-34.1202 693.546,-24.113"/>
<polygon fill="midnightblue" stroke="midnightblue" points="695.249,-27.1765 702.71,-19.6545 692.187,-20.8819 695.249,-27.1765"/>
</g>
<!-- Node13 -->
<g id="node13" class="node"><title>Node13</title>
<polygon fill="none" stroke="#bfbfbf" points="481.5,-0.5 481.5,-19.5 531.5,-19.5 531.5,-0.5 481.5,-0.5"/>
<text text-anchor="middle" x="506.5" y="-7.5" font-family="Helvetica,sans-Serif" font-size="10.00">variant</text>
</g>
<!-- Node10&#45;&gt;Node13 -->
<g id="edge12" class="edge"><title>Node10&#45;&gt;Node13</title>
<path fill="none" stroke="midnightblue" d="M592.951,-56.324C576.508,-47.7034 551.065,-34.3643 532.032,-24.3855"/>
<polygon fill="midnightblue" stroke="midnightblue" points="533.489,-21.198 523.008,-19.6545 530.239,-27.3977 533.489,-21.198"/>
</g>
<!-- Node14 -->
<g id="node14" class="node"><title>Node14</title>
<polygon fill="none" stroke="#bfbfbf" points="550,-0.5 550,-19.5 591,-19.5 591,-0.5 550,-0.5"/>
<text text-anchor="middle" x="570.5" y="-7.5" font-family="Helvetica,sans-Serif" font-size="10.00">tuple</text>
</g>
<!-- Node10&#45;&gt;Node14 -->
<g id="edge13" class="edge"><title>Node10&#45;&gt;Node14</title>
<path fill="none" stroke="midnightblue" d="M603.06,-56.083C597.551,-48.4554 589.469,-37.2645 582.735,-27.9408"/>
<polygon fill="midnightblue" stroke="midnightblue" points="585.513,-25.8087 576.82,-19.7511 579.838,-29.9071 585.513,-25.8087"/>
</g>
<!-- Node15&#45;&gt;Node10 -->
<g id="edge15" class="edge"><title>Node15&#45;&gt;Node10</title>
<path fill="none" stroke="midnightblue" d="M540.776,-168.435C549.042,-159.664 561.868,-145.448 571.5,-132 582.418,-116.757 593.031,-98.1894 600.253,-84.8081"/>
<polygon fill="midnightblue" stroke="midnightblue" points="603.475,-86.2023 605.064,-75.7272 597.29,-82.9253 603.475,-86.2023"/>
</g>
<!-- Node16 -->
<g id="node16" class="node"><title>Node16</title>
<g id="a_node16"><a xlink:href="TransitiveModel_8hxx.html" target="_top" xlink:title="util/TransitiveModel.hxx">
<polygon fill="none" stroke="black" points="436.5,-112.5 436.5,-131.5 562.5,-131.5 562.5,-112.5 436.5,-112.5"/>
<text text-anchor="middle" x="499.5" y="-119.5" font-family="Helvetica,sans-Serif" font-size="10.00">util/TransitiveModel.hxx</text>
</a>
</g>
</g>
<!-- Node15&#45;&gt;Node16 -->
<g id="edge16" class="edge"><title>Node15&#45;&gt;Node16</title>
<path fill="none" stroke="midnightblue" d="M527.051,-168.083C522.486,-160.613 515.832,-149.724 510.207,-140.52"/>
<polygon fill="midnightblue" stroke="midnightblue" points="513.049,-138.459 504.848,-131.751 507.076,-142.109 513.049,-138.459"/>
</g>
<!-- Node16&#45;&gt;Node9 -->
<g id="edge23" class="edge"><title>Node16&#45;&gt;Node9</title>
<path fill="none" stroke="midnightblue" d="M452.439,-112.444C393.402,-101.71 293.392,-83.5258 239.516,-73.7302"/>
<polygon fill="midnightblue" stroke="midnightblue" points="239.846,-70.233 229.382,-71.8876 238.594,-77.12 239.846,-70.233"/>
</g>
<!-- Node16&#45;&gt;Node10 -->
<g id="edge17" class="edge"><title>Node16&#45;&gt;Node10</title>
<path fill="none" stroke="midnightblue" d="M517.173,-112.324C534.894,-103.625 562.403,-90.1202 582.788,-80.113"/>
<polygon fill="midnightblue" stroke="midnightblue" points="584.436,-83.2031 591.87,-75.6545 581.351,-76.9195 584.436,-83.2031"/>
</g>
<!-- Node17 -->
<g id="node17" class="node"><title>Node17</title>
<g id="a_node17"><a xlink:href="Observer_8hxx.html" target="_top" xlink:title="Observer.hxx">
<polygon fill="none" stroke="black" points="313,-56.5 313,-75.5 392,-75.5 392,-56.5 313,-56.5"/>
<text text-anchor="middle" x="352.5" y="-63.5" font-family="Helvetica,sans-Serif" font-size="10.00">Observer.hxx</text>
</a>
</g>
</g>
<!-- Node16&#45;&gt;Node17 -->
<g id="edge18" class="edge"><title>Node16&#45;&gt;Node17</title>
<path fill="none" stroke="midnightblue" d="M476.207,-112.444C451.693,-103.438 412.904,-89.1891 385.3,-79.049"/>
<polygon fill="midnightblue" stroke="midnightblue" points="386.277,-75.6793 375.684,-75.5164 383.863,-82.25 386.277,-75.6793"/>
</g>
<!-- Node20 -->
<g id="node20" class="node"><title>Node20</title>
<polygon fill="none" stroke="#bfbfbf" points="410.5,-56.5 410.5,-75.5 496.5,-75.5 496.5,-56.5 410.5,-56.5"/>
<text text-anchor="middle" x="453.5" y="-63.5" font-family="Helvetica,sans-Serif" font-size="10.00">unordered_set</text>
</g>
<!-- Node16&#45;&gt;Node20 -->
<g id="edge21" class="edge"><title>Node16&#45;&gt;Node20</title>
<path fill="none" stroke="midnightblue" d="M491.904,-112.083C485.273,-104.298 475.479,-92.8015 467.442,-83.3665"/>
<polygon fill="midnightblue" stroke="midnightblue" points="470.104,-81.0939 460.955,-75.7511 464.775,-85.6332 470.104,-81.0939"/>
</g>
<!-- Node21 -->
<g id="node21" class="node"><title>Node21</title>
<polygon fill="none" stroke="#bfbfbf" points="514.5,-56.5 514.5,-75.5 552.5,-75.5 552.5,-56.5 514.5,-56.5"/>
<text text-anchor="middle" x="533.5" y="-63.5" font-family="Helvetica,sans-Serif" font-size="10.00">map</text>
</g>
<!-- Node16&#45;&gt;Node21 -->
<g id="edge22" class="edge"><title>Node16&#45;&gt;Node21</title>
<path fill="none" stroke="midnightblue" d="M505.114,-112.083C509.867,-104.534 516.818,-93.4948 522.652,-84.2298"/>
<polygon fill="midnightblue" stroke="midnightblue" points="525.624,-86.0783 527.99,-75.7511 519.7,-82.3486 525.624,-86.0783"/>
</g>
<!-- Node18 -->
<g id="node18" class="node"><title>Node18</title>
<polygon fill="none" stroke="#bfbfbf" points="294,-0.5 294,-19.5 351,-19.5 351,-0.5 294,-0.5"/>
<text text-anchor="middle" x="322.5" y="-7.5" font-family="Helvetica,sans-Serif" font-size="10.00">memory</text>
</g>
<!-- Node17&#45;&gt;Node18 -->
<g id="edge19" class="edge"><title>Node17&#45;&gt;Node18</title>
<path fill="none" stroke="midnightblue" d="M347.546,-56.083C343.396,-48.6127 337.347,-37.7244 332.233,-28.5199"/>
<polygon fill="midnightblue" stroke="midnightblue" points="335.278,-26.7929 327.362,-19.7511 329.159,-30.1924 335.278,-26.7929"/>
</g>
<!-- Node19 -->
<g id="node19" class="node"><title>Node19</title>
<polygon fill="none" stroke="#bfbfbf" points="369,-0.5 369,-19.5 440,-19.5 440,-0.5 369,-0.5"/>
<text text-anchor="middle" x="404.5" y="-7.5" font-family="Helvetica,sans-Serif" font-size="10.00">forward_list</text>
</g>
<!-- Node17&#45;&gt;Node19 -->
<g id="edge20" class="edge"><title>Node17&#45;&gt;Node19</title>
<path fill="none" stroke="midnightblue" d="M361.087,-56.083C368.659,-48.2195 379.878,-36.5688 389.014,-27.0813"/>
<polygon fill="midnightblue" stroke="midnightblue" points="391.658,-29.3821 396.073,-19.7511 386.615,-24.5266 391.658,-29.3821"/>
</g>
</g>
</svg>
