<?xml version="1.0" encoding="UTF-8" standalone="no"?>
<!DOCTYPE svg PUBLIC "-//W3C//DTD SVG 1.1//EN"
 "http://www.w3.org/Graphics/SVG/1.1/DTD/svg11.dtd">
<!-- Generated by graphviz version 2.38.0 (20140413.2041)
 -->
<!-- Title: src/util/IEquatable.hxx Pages: 1 -->
<svg width="281pt" height="140pt"
 viewBox="0.00 0.00 281.00 140.00" xmlns="http://www.w3.org/2000/svg" xmlns:xlink="http://www.w3.org/1999/xlink">
<g id="graph0" class="graph" transform="scale(1 1) rotate(0) translate(4 136)">
<title>src/util/IEquatable.hxx</title>
<!-- Node1 -->
<g id="node1" class="node"><title>Node1</title>
<polygon fill="#bfbfbf" stroke="black" points="89,-112.5 89,-131.5 210,-131.5 210,-112.5 89,-112.5"/>
<text text-anchor="middle" x="149.5" y="-119.5" font-family="Helvetica,sans-Serif" font-size="10.00">src/util/IEquatable.hxx</text>
</g>
<!-- Node2 -->
<g id="node2" class="node"><title>Node2</title>
<g id="a_node2"><a xlink:href="Meta_8hxx.html" target="_top" xlink:title="Meta.hxx">
<polygon fill="none" stroke="black" points="119.5,-56.5 119.5,-75.5 179.5,-75.5 179.5,-56.5 119.5,-56.5"/>
<text text-anchor="middle" x="149.5" y="-63.5" font-family="Helvetica,sans-Serif" font-size="10.00">Meta.hxx</text>
</a>
</g>
</g>
<!-- Node1&#45;&gt;Node2 -->
<g id="edge1" class="edge"><title>Node1&#45;&gt;Node2</title>
<path fill="none" stroke="midnightblue" d="M149.5,-112.083C149.5,-105.006 149.5,-94.8611 149.5,-85.9865"/>
<polygon fill="midnightblue" stroke="midnightblue" points="153,-85.751 149.5,-75.7511 146,-85.7511 153,-85.751"/>
</g>
<!-- Node3 -->
<g id="node3" class="node"><title>Node3</title>
<polygon fill="none" stroke="#bfbfbf" points="0,-0.5 0,-19.5 59,-19.5 59,-0.5 0,-0.5"/>
<text text-anchor="middle" x="29.5" y="-7.5" font-family="Helvetica,sans-Serif" font-size="10.00">iostream</text>
</g>
<!-- Node2&#45;&gt;Node3 -->
<g id="edge2" class="edge"><title>Node2&#45;&gt;Node3</title>
<path fill="none" stroke="midnightblue" d="M130.486,-56.4435C110.912,-47.6356 80.1924,-33.8116 57.7711,-23.722"/>
<polygon fill="midnightblue" stroke="midnightblue" points="58.9809,-20.4284 48.4254,-19.5164 56.1083,-26.8119 58.9809,-20.4284"/>
</g>
<!-- Node4 -->
<g id="node4" class="node"><title>Node4</title>
<polygon fill="none" stroke="#bfbfbf" points="77.5,-0.5 77.5,-19.5 145.5,-19.5 145.5,-0.5 77.5,-0.5"/>
<text text-anchor="middle" x="111.5" y="-7.5" font-family="Helvetica,sans-Serif" font-size="10.00">type_traits</text>
</g>
<!-- Node2&#45;&gt;Node4 -->
<g id="edge3" class="edge"><title>Node2&#45;&gt;Node4</title>
<path fill="none" stroke="midnightblue" d="M143.225,-56.083C137.858,-48.4554 129.982,-37.2645 123.421,-27.9408"/>
<polygon fill="midnightblue" stroke="midnightblue" points="126.275,-25.9149 117.658,-19.7511 120.551,-29.9434 126.275,-25.9149"/>
</g>
<!-- Node5 -->
<g id="node5" class="node"><title>Node5</title>
<polygon fill="none" stroke="#bfbfbf" points="163.5,-0.5 163.5,-19.5 213.5,-19.5 213.5,-0.5 163.5,-0.5"/>
<text text-anchor="middle" x="188.5" y="-7.5" font-family="Helvetica,sans-Serif" font-size="10.00">variant</text>
</g>
<!-- Node2&#45;&gt;Node5 -->
<g id="edge4" class="edge"><title>Node2&#45;&gt;Node5</title>
<path fill="none" stroke="midnightblue" d="M155.94,-56.083C161.449,-48.4554 169.531,-37.2645 176.265,-27.9408"/>
<polygon fill="midnightblue" stroke="midnightblue" points="179.162,-29.9071 182.18,-19.7511 173.487,-25.8087 179.162,-29.9071"/>
</g>
<!-- Node6 -->
<g id="node6" class="node"><title>Node6</title>
<polygon fill="none" stroke="#bfbfbf" points="232,-0.5 232,-19.5 273,-19.5 273,-0.5 232,-0.5"/>
<text text-anchor="middle" x="252.5" y="-7.5" font-family="Helvetica,sans-Serif" font-size="10.00">tuple</text>
</g>
<!-- Node2&#45;&gt;Node6 -->
<g id="edge5" class="edge"><title>Node2&#45;&gt;Node6</title>
<path fill="none" stroke="midnightblue" d="M166.049,-56.324C182.492,-47.7034 207.935,-34.3643 226.968,-24.3855"/>
<polygon fill="midnightblue" stroke="midnightblue" points="228.761,-27.3977 235.992,-19.6545 225.511,-21.198 228.761,-27.3977"/>
</g>
</g>
</svg>
