<?xml version="1.0" encoding="UTF-8" standalone="no"?>
<!DOCTYPE svg PUBLIC "-//W3C//DTD SVG 1.1//EN"
 "http://www.w3.org/Graphics/SVG/1.1/DTD/svg11.dtd">
<!-- Generated by graphviz version 2.38.0 (20140413.2041)
 -->
<!-- Title: src/main.cxx Pages: 1 -->
<svg width="757pt" height="308pt"
 viewBox="0.00 0.00 757.00 308.00" xmlns="http://www.w3.org/2000/svg" xmlns:xlink="http://www.w3.org/1999/xlink">
<g id="graph0" class="graph" transform="scale(1 1) rotate(0) translate(4 304)">
<title>src/main.cxx</title>
<!-- Node1 -->
<g id="node1" class="node"><title>Node1</title>
<polygon fill="#bfbfbf" stroke="black" points="91,-280.5 91,-299.5 168,-299.5 168,-280.5 91,-280.5"/>
<text text-anchor="middle" x="129.5" y="-287.5" font-family="Helvetica,sans-Serif" font-size="10.00">src/main.cxx</text>
</g>
<!-- Node2 -->
<g id="node2" class="node"><title>Node2</title>
<g id="a_node2"><a xlink:href="Game_8hxx.html" target="_top" xlink:title="Game.hxx">
<polygon fill="none" stroke="black" points="176,-224.5 176,-243.5 241,-243.5 241,-224.5 176,-224.5"/>
<text text-anchor="middle" x="208.5" y="-231.5" font-family="Helvetica,sans-Serif" font-size="10.00">Game.hxx</text>
</a>
</g>
</g>
<!-- Node1&#45;&gt;Node2 -->
<g id="edge1" class="edge"><title>Node1&#45;&gt;Node2</title>
<path fill="none" stroke="midnightblue" d="M142.193,-280.324C154.401,-271.979 173.078,-259.212 187.503,-249.352"/>
<polygon fill="midnightblue" stroke="midnightblue" points="189.558,-252.187 195.839,-243.655 185.608,-246.408 189.558,-252.187"/>
</g>
<!-- Node12 -->
<g id="node12" class="node"><title>Node12</title>
<polygon fill="none" stroke="#bfbfbf" points="0,-0.5 0,-19.5 59,-19.5 59,-0.5 0,-0.5"/>
<text text-anchor="middle" x="29.5" y="-7.5" font-family="Helvetica,sans-Serif" font-size="10.00">iostream</text>
</g>
<!-- Node1&#45;&gt;Node12 -->
<g id="edge26" class="edge"><title>Node1&#45;&gt;Node12</title>
<path fill="none" stroke="midnightblue" d="M117.156,-280.277C94.9375,-263.446 50.5,-224.143 50.5,-179 50.5,-179 50.5,-179 50.5,-121 50.5,-88.3843 41.4821,-51.2785 35.2653,-29.5732"/>
<polygon fill="midnightblue" stroke="midnightblue" points="38.5427,-28.3156 32.3322,-19.7319 31.8343,-30.3151 38.5427,-28.3156"/>
</g>
<!-- Node3 -->
<g id="node3" class="node"><title>Node3</title>
<g id="a_node3"><a xlink:href="ScriptEngine_8hxx.html" target="_top" xlink:title="Scripting/ScriptEngine.hxx">
<polygon fill="none" stroke="black" points="289,-168.5 289,-187.5 430,-187.5 430,-168.5 289,-168.5"/>
<text text-anchor="middle" x="359.5" y="-175.5" font-family="Helvetica,sans-Serif" font-size="10.00">Scripting/ScriptEngine.hxx</text>
</a>
</g>
</g>
<!-- Node2&#45;&gt;Node3 -->
<g id="edge2" class="edge"><title>Node2&#45;&gt;Node3</title>
<path fill="none" stroke="midnightblue" d="M232.426,-224.444C257.719,-215.399 297.802,-201.064 326.18,-190.916"/>
<polygon fill="midnightblue" stroke="midnightblue" points="327.448,-194.179 335.686,-187.516 325.091,-187.588 327.448,-194.179"/>
</g>
<!-- Node4 -->
<g id="node4" class="node"><title>Node4</title>
<g id="a_node4"><a xlink:href="MessageQueue_8hxx.html" target="_top" xlink:title="util/MessageQueue.hxx">
<polygon fill="none" stroke="black" points="448.5,-168.5 448.5,-187.5 576.5,-187.5 576.5,-168.5 448.5,-168.5"/>
<text text-anchor="middle" x="512.5" y="-175.5" font-family="Helvetica,sans-Serif" font-size="10.00">util/MessageQueue.hxx</text>
</a>
</g>
</g>
<!-- Node2&#45;&gt;Node4 -->
<g id="edge3" class="edge"><title>Node2&#45;&gt;Node4</title>
<path fill="none" stroke="midnightblue" d="M241.033,-227.221C291.889,-218.188 390.943,-200.592 454.3,-189.338"/>
<polygon fill="midnightblue" stroke="midnightblue" points="455.301,-192.715 464.535,-187.52 454.077,-185.823 455.301,-192.715"/>
</g>
<!-- Node11 -->
<g id="node11" class="node"><title>Node11</title>
<g id="a_node11"><a xlink:href="Meta_8hxx.html" target="_top" xlink:title="util/Meta.hxx">
<polygon fill="none" stroke="black" points="120,-56.5 120,-75.5 197,-75.5 197,-56.5 120,-56.5"/>
<text text-anchor="middle" x="158.5" y="-63.5" font-family="Helvetica,sans-Serif" font-size="10.00">util/Meta.hxx</text>
</a>
</g>
</g>
<!-- Node2&#45;&gt;Node11 -->
<g id="edge10" class="edge"><title>Node2&#45;&gt;Node11</title>
<path fill="none" stroke="midnightblue" d="M177.477,-224.436C159.468,-217.694 138.269,-206.302 127.5,-188 107.792,-154.505 130.869,-108.609 146.486,-84.0885"/>
<polygon fill="midnightblue" stroke="midnightblue" points="149.556,-85.794 152.193,-75.5328 143.732,-81.9094 149.556,-85.794"/>
</g>
<!-- Node16 -->
<g id="node16" class="node"><title>Node16</title>
<g id="a_node16"><a xlink:href="Events_8hxx.html" target="_top" xlink:title="Events.hxx">
<polygon fill="none" stroke="black" points="136.5,-168.5 136.5,-187.5 204.5,-187.5 204.5,-168.5 136.5,-168.5"/>
<text text-anchor="middle" x="170.5" y="-175.5" font-family="Helvetica,sans-Serif" font-size="10.00">Events.hxx</text>
</a>
</g>
</g>
<!-- Node2&#45;&gt;Node16 -->
<g id="edge15" class="edge"><title>Node2&#45;&gt;Node16</title>
<path fill="none" stroke="midnightblue" d="M202.225,-224.083C196.858,-216.455 188.982,-205.264 182.421,-195.941"/>
<polygon fill="midnightblue" stroke="midnightblue" points="185.275,-193.915 176.658,-187.751 179.551,-197.943 185.275,-193.915"/>
</g>
<!-- Node23 -->
<g id="node23" class="node"><title>Node23</title>
<polygon fill="none" stroke="#bfbfbf" points="222.5,-168.5 222.5,-187.5 270.5,-187.5 270.5,-168.5 222.5,-168.5"/>
<text text-anchor="middle" x="246.5" y="-175.5" font-family="Helvetica,sans-Serif" font-size="10.00">thread</text>
</g>
<!-- Node2&#45;&gt;Node23 -->
<g id="edge25" class="edge"><title>Node2&#45;&gt;Node23</title>
<path fill="none" stroke="midnightblue" d="M214.775,-224.083C220.142,-216.455 228.018,-205.264 234.579,-195.941"/>
<polygon fill="midnightblue" stroke="midnightblue" points="237.449,-197.943 240.342,-187.751 231.725,-193.915 237.449,-197.943"/>
</g>
<!-- Node5 -->
<g id="node5" class="node"><title>Node5</title>
<polygon fill="none" stroke="#bfbfbf" points="581,-112.5 581,-131.5 684,-131.5 684,-112.5 581,-112.5"/>
<text text-anchor="middle" x="632.5" y="-119.5" font-family="Helvetica,sans-Serif" font-size="10.00">condition_variable</text>
</g>
<!-- Node4&#45;&gt;Node5 -->
<g id="edge4" class="edge"><title>Node4&#45;&gt;Node5</title>
<path fill="none" stroke="midnightblue" d="M531.514,-168.444C551.088,-159.636 581.808,-145.812 604.229,-135.722"/>
<polygon fill="midnightblue" stroke="midnightblue" points="605.892,-138.812 613.575,-131.516 603.019,-132.428 605.892,-138.812"/>
</g>
<!-- Node6 -->
<g id="node6" class="node"><title>Node6</title>
<polygon fill="none" stroke="#bfbfbf" points="702,-112.5 702,-131.5 749,-131.5 749,-112.5 702,-112.5"/>
<text text-anchor="middle" x="725.5" y="-119.5" font-family="Helvetica,sans-Serif" font-size="10.00">mutex</text>
</g>
<!-- Node4&#45;&gt;Node6 -->
<g id="edge5" class="edge"><title>Node4&#45;&gt;Node6</title>
<path fill="none" stroke="midnightblue" d="M548.299,-168.441C582.801,-160.116 636.718,-146.91 691.822,-132.393"/>
<polygon fill="midnightblue" stroke="midnightblue" points="692.984,-135.706 701.756,-129.765 691.194,-128.939 692.984,-135.706"/>
</g>
<!-- Node7 -->
<g id="node7" class="node"><title>Node7</title>
<polygon fill="none" stroke="#bfbfbf" points="331,-112.5 331,-131.5 378,-131.5 378,-112.5 331,-112.5"/>
<text text-anchor="middle" x="354.5" y="-119.5" font-family="Helvetica,sans-Serif" font-size="10.00">deque</text>
</g>
<!-- Node4&#45;&gt;Node7 -->
<g id="edge6" class="edge"><title>Node4&#45;&gt;Node7</title>
<path fill="none" stroke="midnightblue" d="M487.464,-168.444C460.493,-159.226 417.447,-144.513 387.674,-134.338"/>
<polygon fill="midnightblue" stroke="midnightblue" points="388.723,-130.998 378.128,-131.075 386.459,-137.621 388.723,-130.998"/>
</g>
<!-- Node8 -->
<g id="node8" class="node"><title>Node8</title>
<polygon fill="none" stroke="#bfbfbf" points="396,-112.5 396,-131.5 443,-131.5 443,-112.5 396,-112.5"/>
<text text-anchor="middle" x="419.5" y="-119.5" font-family="Helvetica,sans-Serif" font-size="10.00">vector</text>
</g>
<!-- Node4&#45;&gt;Node8 -->
<g id="edge7" class="edge"><title>Node4&#45;&gt;Node8</title>
<path fill="none" stroke="midnightblue" d="M497.558,-168.324C482.915,-159.822 460.366,-146.729 443.262,-136.797"/>
<polygon fill="midnightblue" stroke="midnightblue" points="444.81,-133.649 434.405,-131.655 441.295,-139.703 444.81,-133.649"/>
</g>
<!-- Node9 -->
<g id="node9" class="node"><title>Node9</title>
<polygon fill="none" stroke="#bfbfbf" points="461,-112.5 461,-131.5 524,-131.5 524,-112.5 461,-112.5"/>
<text text-anchor="middle" x="492.5" y="-119.5" font-family="Helvetica,sans-Serif" font-size="10.00">functional</text>
</g>
<!-- Node4&#45;&gt;Node9 -->
<g id="edge8" class="edge"><title>Node4&#45;&gt;Node9</title>
<path fill="none" stroke="midnightblue" d="M509.197,-168.083C506.518,-160.849 502.651,-150.409 499.314,-141.397"/>
<polygon fill="midnightblue" stroke="midnightblue" points="502.496,-139.913 495.741,-131.751 495.932,-142.344 502.496,-139.913"/>
</g>
<!-- Node10 -->
<g id="node10" class="node"><title>Node10</title>
<polygon fill="none" stroke="#bfbfbf" points="500,-56.5 500,-75.5 553,-75.5 553,-56.5 500,-56.5"/>
<text text-anchor="middle" x="526.5" y="-63.5" font-family="Helvetica,sans-Serif" font-size="10.00">ciso646</text>
</g>
<!-- Node4&#45;&gt;Node10 -->
<g id="edge9" class="edge"><title>Node4&#45;&gt;Node10</title>
<path fill="none" stroke="midnightblue" d="M517.63,-168.407C522.558,-159.614 529.66,-145.381 532.5,-132 535.775,-116.566 533.714,-98.6958 531.151,-85.6031"/>
<polygon fill="midnightblue" stroke="midnightblue" points="534.492,-84.5029 528.892,-75.5088 527.661,-86.0318 534.492,-84.5029"/>
</g>
<!-- Node11&#45;&gt;Node12 -->
<g id="edge11" class="edge"><title>Node11&#45;&gt;Node12</title>
<path fill="none" stroke="midnightblue" d="M138.06,-56.4435C116.83,-47.5566 83.401,-33.5632 59.245,-23.4514"/>
<polygon fill="midnightblue" stroke="midnightblue" points="60.4207,-20.1493 49.8448,-19.5164 57.7177,-26.6064 60.4207,-20.1493"/>
</g>
<!-- Node13 -->
<g id="node13" class="node"><title>Node13</title>
<polygon fill="none" stroke="#bfbfbf" points="77.5,-0.5 77.5,-19.5 145.5,-19.5 145.5,-0.5 77.5,-0.5"/>
<text text-anchor="middle" x="111.5" y="-7.5" font-family="Helvetica,sans-Serif" font-size="10.00">type_traits</text>
</g>
<!-- Node11&#45;&gt;Node13 -->
<g id="edge12" class="edge"><title>Node11&#45;&gt;Node13</title>
<path fill="none" stroke="midnightblue" d="M150.739,-56.083C143.963,-48.2982 133.957,-36.8015 125.745,-27.3665"/>
<polygon fill="midnightblue" stroke="midnightblue" points="128.322,-24.9963 119.117,-19.7511 123.042,-29.592 128.322,-24.9963"/>
</g>
<!-- Node14 -->
<g id="node14" class="node"><title>Node14</title>
<polygon fill="none" stroke="#bfbfbf" points="163.5,-0.5 163.5,-19.5 213.5,-19.5 213.5,-0.5 163.5,-0.5"/>
<text text-anchor="middle" x="188.5" y="-7.5" font-family="Helvetica,sans-Serif" font-size="10.00">variant</text>
</g>
<!-- Node11&#45;&gt;Node14 -->
<g id="edge13" class="edge"><title>Node11&#45;&gt;Node14</title>
<path fill="none" stroke="midnightblue" d="M163.454,-56.083C167.604,-48.6127 173.653,-37.7244 178.767,-28.5199"/>
<polygon fill="midnightblue" stroke="midnightblue" points="181.841,-30.1924 183.638,-19.7511 175.722,-26.7929 181.841,-30.1924"/>
</g>
<!-- Node15 -->
<g id="node15" class="node"><title>Node15</title>
<polygon fill="none" stroke="#bfbfbf" points="232,-0.5 232,-19.5 273,-19.5 273,-0.5 232,-0.5"/>
<text text-anchor="middle" x="252.5" y="-7.5" font-family="Helvetica,sans-Serif" font-size="10.00">tuple</text>
</g>
<!-- Node11&#45;&gt;Node15 -->
<g id="edge14" class="edge"><title>Node11&#45;&gt;Node15</title>
<path fill="none" stroke="midnightblue" d="M173.603,-56.324C188.403,-47.8215 211.194,-34.7288 228.482,-24.7975"/>
<polygon fill="midnightblue" stroke="midnightblue" points="230.507,-27.6707 237.435,-19.6545 227.02,-21.6009 230.507,-27.6707"/>
</g>
<!-- Node16&#45;&gt;Node11 -->
<g id="edge16" class="edge"><title>Node16&#45;&gt;Node11</title>
<path fill="none" stroke="midnightblue" d="M169.558,-168.368C167.622,-150.617 163.155,-109.666 160.529,-85.5974"/>
<polygon fill="midnightblue" stroke="midnightblue" points="164.001,-85.1528 159.437,-75.5914 157.042,-85.912 164.001,-85.1528"/>
</g>
<!-- Node17 -->
<g id="node17" class="node"><title>Node17</title>
<g id="a_node17"><a xlink:href="TransitiveModel_8hxx.html" target="_top" xlink:title="util/TransitiveModel.hxx">
<polygon fill="none" stroke="black" points="186.5,-112.5 186.5,-131.5 312.5,-131.5 312.5,-112.5 186.5,-112.5"/>
<text text-anchor="middle" x="249.5" y="-119.5" font-family="Helvetica,sans-Serif" font-size="10.00">util/TransitiveModel.hxx</text>
</a>
</g>
</g>
<!-- Node16&#45;&gt;Node17 -->
<g id="edge17" class="edge"><title>Node16&#45;&gt;Node17</title>
<path fill="none" stroke="midnightblue" d="M183.193,-168.324C195.401,-159.979 214.078,-147.212 228.503,-137.352"/>
<polygon fill="midnightblue" stroke="midnightblue" points="230.558,-140.187 236.839,-131.655 226.608,-134.408 230.558,-140.187"/>
</g>
<!-- Node17&#45;&gt;Node10 -->
<g id="edge24" class="edge"><title>Node17&#45;&gt;Node10</title>
<path fill="none" stroke="midnightblue" d="M293.391,-112.444C347.768,-101.843 439.412,-83.9774 490.08,-74.0999"/>
<polygon fill="midnightblue" stroke="midnightblue" points="490.798,-77.526 499.943,-72.1772 489.458,-70.6554 490.798,-77.526"/>
</g>
<!-- Node17&#45;&gt;Node11 -->
<g id="edge18" class="edge"><title>Node17&#45;&gt;Node11</title>
<path fill="none" stroke="midnightblue" d="M234.879,-112.324C220.551,-103.822 198.487,-90.7288 181.751,-80.7975"/>
<polygon fill="midnightblue" stroke="midnightblue" points="183.47,-77.7478 173.084,-75.6545 179.898,-83.7677 183.47,-77.7478"/>
</g>
<!-- Node18 -->
<g id="node18" class="node"><title>Node18</title>
<g id="a_node18"><a xlink:href="Observer_8hxx.html" target="_top" xlink:title="Observer.hxx">
<polygon fill="none" stroke="black" points="280,-56.5 280,-75.5 359,-75.5 359,-56.5 280,-56.5"/>
<text text-anchor="middle" x="319.5" y="-63.5" font-family="Helvetica,sans-Serif" font-size="10.00">Observer.hxx</text>
</a>
</g>
</g>
<!-- Node17&#45;&gt;Node18 -->
<g id="edge19" class="edge"><title>Node17&#45;&gt;Node18</title>
<path fill="none" stroke="midnightblue" d="M260.747,-112.324C271.297,-104.185 287.301,-91.8395 299.942,-82.0874"/>
<polygon fill="midnightblue" stroke="midnightblue" points="302.269,-84.7132 308.049,-75.8339 297.993,-79.1707 302.269,-84.7132"/>
</g>
<!-- Node21 -->
<g id="node21" class="node"><title>Node21</title>
<polygon fill="none" stroke="#bfbfbf" points="377.5,-56.5 377.5,-75.5 463.5,-75.5 463.5,-56.5 377.5,-56.5"/>
<text text-anchor="middle" x="420.5" y="-63.5" font-family="Helvetica,sans-Serif" font-size="10.00">unordered_set</text>
</g>
<!-- Node17&#45;&gt;Node21 -->
<g id="edge22" class="edge"><title>Node17&#45;&gt;Node21</title>
<path fill="none" stroke="midnightblue" d="M276.595,-112.444C305.488,-103.32 351.425,-88.8133 383.605,-78.6509"/>
<polygon fill="midnightblue" stroke="midnightblue" points="385.049,-81.8654 393.531,-75.5164 382.941,-75.1903 385.049,-81.8654"/>
</g>
<!-- Node22 -->
<g id="node22" class="node"><title>Node22</title>
<polygon fill="none" stroke="#bfbfbf" points="223.5,-56.5 223.5,-75.5 261.5,-75.5 261.5,-56.5 223.5,-56.5"/>
<text text-anchor="middle" x="242.5" y="-63.5" font-family="Helvetica,sans-Serif" font-size="10.00">map</text>
</g>
<!-- Node17&#45;&gt;Node22 -->
<g id="edge23" class="edge"><title>Node17&#45;&gt;Node22</title>
<path fill="none" stroke="midnightblue" d="M248.344,-112.083C247.416,-104.927 246.082,-94.6353 244.923,-85.6911"/>
<polygon fill="midnightblue" stroke="midnightblue" points="248.391,-85.2181 243.634,-75.7511 241.449,-86.1181 248.391,-85.2181"/>
</g>
<!-- Node19 -->
<g id="node19" class="node"><title>Node19</title>
<polygon fill="none" stroke="#bfbfbf" points="291,-0.5 291,-19.5 348,-19.5 348,-0.5 291,-0.5"/>
<text text-anchor="middle" x="319.5" y="-7.5" font-family="Helvetica,sans-Serif" font-size="10.00">memory</text>
</g>
<!-- Node18&#45;&gt;Node19 -->
<g id="edge20" class="edge"><title>Node18&#45;&gt;Node19</title>
<path fill="none" stroke="midnightblue" d="M319.5,-56.083C319.5,-49.0059 319.5,-38.8611 319.5,-29.9865"/>
<polygon fill="midnightblue" stroke="midnightblue" points="323,-29.751 319.5,-19.7511 316,-29.7511 323,-29.751"/>
</g>
<!-- Node20 -->
<g id="node20" class="node"><title>Node20</title>
<polygon fill="none" stroke="#bfbfbf" points="366,-0.5 366,-19.5 437,-19.5 437,-0.5 366,-0.5"/>
<text text-anchor="middle" x="401.5" y="-7.5" font-family="Helvetica,sans-Serif" font-size="10.00">forward_list</text>
</g>
<!-- Node18&#45;&gt;Node20 -->
<g id="edge21" class="edge"><title>Node18&#45;&gt;Node20</title>
<path fill="none" stroke="midnightblue" d="M332.675,-56.324C345.347,-47.979 364.733,-35.2122 379.706,-25.3524"/>
<polygon fill="midnightblue" stroke="midnightblue" points="381.931,-28.0776 388.358,-19.6545 378.081,-22.2313 381.931,-28.0776"/>
</g>
</g>
</svg>
