<?xml version="1.0" encoding="UTF-8" standalone="no"?>
<!DOCTYPE svg PUBLIC "-//W3C//DTD SVG 1.1//EN"
 "http://www.w3.org/Graphics/SVG/1.1/DTD/svg11.dtd">
<!-- Generated by graphviz version 2.38.0 (20140413.2041)
 -->
<!-- Title: src/util/Meta.hxx Pages: 1 -->
<svg width="343pt" height="252pt"
 viewBox="0.00 0.00 343.04 252.00" xmlns="http://www.w3.org/2000/svg" xmlns:xlink="http://www.w3.org/1999/xlink">
<g id="graph0" class="graph" transform="scale(1 1) rotate(0) translate(4 248)">
<title>src/util/Meta.hxx</title>
<!-- Node1 -->
<g id="node1" class="node"><title>Node1</title>
<polygon fill="#bfbfbf" stroke="black" points="88.0446,-224.5 88.0446,-243.5 183.045,-243.5 183.045,-224.5 88.0446,-224.5"/>
<text text-anchor="middle" x="135.545" y="-231.5" font-family="Helvetica,sans-Serif" font-size="10.00">src/util/Meta.hxx</text>
</g>
<!-- Node2 -->
<g id="node2" class="node"><title>Node2</title>
<g id="a_node2"><a xlink:href="Events_8hxx.html" target="_top" xlink:title="src/Events.hxx">
<polygon fill="none" stroke="black" points="42.5446,-112.5 42.5446,-131.5 128.545,-131.5 128.545,-112.5 42.5446,-112.5"/>
<text text-anchor="middle" x="85.5446" y="-119.5" font-family="Helvetica,sans-Serif" font-size="10.00">src/Events.hxx</text>
</a>
</g>
</g>
<!-- Node1&#45;&gt;Node2 -->
<g id="edge1" class="edge"><title>Node1&#45;&gt;Node2</title>
<path fill="none" stroke="midnightblue" d="M77.6107,-228.178C50.777,-222.703 21.2077,-211.343 4.54462,-188 -13.3165,-162.979 28.5437,-142.454 58.4973,-131.535"/>
<polygon fill="midnightblue" stroke="midnightblue" points="77.2661,-231.673 87.7284,-230.002 78.5076,-224.784 77.2661,-231.673"/>
</g>
<!-- Node3 -->
<g id="node3" class="node"><title>Node3</title>
<g id="a_node3"><a xlink:href="Game_8hxx.html" target="_top" xlink:title="src/Game.hxx">
<polygon fill="none" stroke="black" points="94.0446,-56.5 94.0446,-75.5 177.045,-75.5 177.045,-56.5 94.0446,-56.5"/>
<text text-anchor="middle" x="135.545" y="-63.5" font-family="Helvetica,sans-Serif" font-size="10.00">src/Game.hxx</text>
</a>
</g>
</g>
<!-- Node1&#45;&gt;Node3 -->
<g id="edge7" class="edge"><title>Node1&#45;&gt;Node3</title>
<path fill="none" stroke="midnightblue" d="M150.52,-216.473C156.769,-208.479 163.316,-198.378 166.545,-188 179.493,-146.38 152.998,-95.5235 141.015,-75.5922"/>
<polygon fill="midnightblue" stroke="midnightblue" points="147.76,-214.318 144.027,-224.234 153.128,-218.81 147.76,-214.318"/>
</g>
<!-- Node6 -->
<g id="node6" class="node"><title>Node6</title>
<g id="a_node6"><a xlink:href="TransitiveModel_8hxx.html" target="_top" xlink:title="src/util/TransitiveModel.hxx">
<polygon fill="none" stroke="black" points="14.0446,-168.5 14.0446,-187.5 157.045,-187.5 157.045,-168.5 14.0446,-168.5"/>
<text text-anchor="middle" x="85.5446" y="-175.5" font-family="Helvetica,sans-Serif" font-size="10.00">src/util/TransitiveModel.hxx</text>
</a>
</g>
</g>
<!-- Node1&#45;&gt;Node6 -->
<g id="edge5" class="edge"><title>Node1&#45;&gt;Node6</title>
<path fill="none" stroke="midnightblue" d="M120.468,-216.718C111.655,-207.2 100.879,-195.561 93.6475,-187.751"/>
<polygon fill="midnightblue" stroke="midnightblue" points="117.926,-219.123 127.288,-224.083 123.062,-214.367 117.926,-219.123"/>
</g>
<!-- Node7 -->
<g id="node7" class="node"><title>Node7</title>
<g id="a_node7"><a xlink:href="IEquatable_8hxx.html" target="_top" xlink:title="src/util/IEquatable.hxx">
<polygon fill="none" stroke="black" points="214.045,-168.5 214.045,-187.5 335.045,-187.5 335.045,-168.5 214.045,-168.5"/>
<text text-anchor="middle" x="274.545" y="-175.5" font-family="Helvetica,sans-Serif" font-size="10.00">src/util/IEquatable.hxx</text>
</a>
</g>
</g>
<!-- Node1&#45;&gt;Node7 -->
<g id="edge8" class="edge"><title>Node1&#45;&gt;Node7</title>
<path fill="none" stroke="midnightblue" d="M167.02,-220.772C193.13,-210.629 229.584,-196.467 252.623,-187.516"/>
<polygon fill="midnightblue" stroke="midnightblue" points="165.623,-217.56 157.57,-224.444 168.158,-224.085 165.623,-217.56"/>
</g>
<!-- Node2&#45;&gt;Node3 -->
<g id="edge2" class="edge"><title>Node2&#45;&gt;Node3</title>
<path fill="none" stroke="midnightblue" d="M100.621,-104.718C109.434,-95.1997 120.211,-83.5608 127.442,-75.7511"/>
<polygon fill="midnightblue" stroke="midnightblue" points="98.027,-102.367 93.8011,-112.083 103.163,-107.123 98.027,-102.367"/>
</g>
<!-- Node4 -->
<g id="node4" class="node"><title>Node4</title>
<g id="a_node4"><a xlink:href="Game_8cxx.html" target="_top" xlink:title="src/Game.cxx">
<polygon fill="none" stroke="black" points="45.5446,-0.5 45.5446,-19.5 127.545,-19.5 127.545,-0.5 45.5446,-0.5"/>
<text text-anchor="middle" x="86.5446" y="-7.5" font-family="Helvetica,sans-Serif" font-size="10.00">src/Game.cxx</text>
</a>
</g>
</g>
<!-- Node3&#45;&gt;Node4 -->
<g id="edge3" class="edge"><title>Node3&#45;&gt;Node4</title>
<path fill="none" stroke="midnightblue" d="M120.51,-48.4314C111.922,-38.9673 101.501,-27.4827 94.4854,-19.7511"/>
<polygon fill="midnightblue" stroke="midnightblue" points="118.141,-51.0293 127.453,-56.083 123.325,-46.3254 118.141,-51.0293"/>
</g>
<!-- Node5 -->
<g id="node5" class="node"><title>Node5</title>
<g id="a_node5"><a xlink:href="main_8cxx.html" target="_top" xlink:title="src/main.cxx">
<polygon fill="none" stroke="black" points="146.045,-0.5 146.045,-19.5 223.045,-19.5 223.045,-0.5 146.045,-0.5"/>
<text text-anchor="middle" x="184.545" y="-7.5" font-family="Helvetica,sans-Serif" font-size="10.00">src/main.cxx</text>
</a>
</g>
</g>
<!-- Node3&#45;&gt;Node5 -->
<g id="edge4" class="edge"><title>Node3&#45;&gt;Node5</title>
<path fill="none" stroke="midnightblue" d="M150.579,-48.4314C159.167,-38.9673 169.588,-27.4827 176.604,-19.7511"/>
<polygon fill="midnightblue" stroke="midnightblue" points="147.764,-46.3254 143.636,-56.083 152.948,-51.0293 147.764,-46.3254"/>
</g>
<!-- Node6&#45;&gt;Node2 -->
<g id="edge6" class="edge"><title>Node6&#45;&gt;Node2</title>
<path fill="none" stroke="midnightblue" d="M85.5446,-157.805C85.5446,-148.91 85.5446,-138.78 85.5446,-131.751"/>
<polygon fill="midnightblue" stroke="midnightblue" points="82.0447,-158.083 85.5446,-168.083 89.0447,-158.083 82.0447,-158.083"/>
</g>
</g>
</svg>
