<?xml version="1.0" encoding="UTF-8" standalone="no"?>
<!DOCTYPE svg PUBLIC "-//W3C//DTD SVG 1.1//EN"
 "http://www.w3.org/Graphics/SVG/1.1/DTD/svg11.dtd">
<!-- Generated by graphviz version 2.38.0 (20140413.2041)
 -->
<!-- Title: src/util/Observer.hxx Pages: 1 -->
<svg width="186pt" height="252pt"
 viewBox="0.00 0.00 185.50 252.00" xmlns="http://www.w3.org/2000/svg" xmlns:xlink="http://www.w3.org/1999/xlink">
<g id="graph0" class="graph" transform="scale(1 1) rotate(0) translate(4 248)">
<title>src/util/Observer.hxx</title>
<!-- Node1 -->
<g id="node1" class="node"><title>Node1</title>
<polygon fill="#bfbfbf" stroke="black" points="33.5,-224.5 33.5,-243.5 146.5,-243.5 146.5,-224.5 33.5,-224.5"/>
<text text-anchor="middle" x="90" y="-231.5" font-family="Helvetica,sans-Serif" font-size="10.00">src/util/Observer.hxx</text>
</g>
<!-- Node2 -->
<g id="node2" class="node"><title>Node2</title>
<g id="a_node2"><a xlink:href="TransitiveModel_8hxx.html" target="_top" xlink:title="src/util/TransitiveModel.hxx">
<polygon fill="none" stroke="black" points="18.5,-168.5 18.5,-187.5 161.5,-187.5 161.5,-168.5 18.5,-168.5"/>
<text text-anchor="middle" x="90" y="-175.5" font-family="Helvetica,sans-Serif" font-size="10.00">src/util/TransitiveModel.hxx</text>
</a>
</g>
</g>
<!-- Node1&#45;&gt;Node2 -->
<g id="edge1" class="edge"><title>Node1&#45;&gt;Node2</title>
<path fill="none" stroke="midnightblue" d="M90,-213.805C90,-204.91 90,-194.78 90,-187.751"/>
<polygon fill="midnightblue" stroke="midnightblue" points="86.5001,-214.083 90,-224.083 93.5001,-214.083 86.5001,-214.083"/>
</g>
<!-- Node3 -->
<g id="node3" class="node"><title>Node3</title>
<g id="a_node3"><a xlink:href="Events_8hxx.html" target="_top" xlink:title="src/Events.hxx">
<polygon fill="none" stroke="black" points="47,-112.5 47,-131.5 133,-131.5 133,-112.5 47,-112.5"/>
<text text-anchor="middle" x="90" y="-119.5" font-family="Helvetica,sans-Serif" font-size="10.00">src/Events.hxx</text>
</a>
</g>
</g>
<!-- Node2&#45;&gt;Node3 -->
<g id="edge2" class="edge"><title>Node2&#45;&gt;Node3</title>
<path fill="none" stroke="midnightblue" d="M90,-157.805C90,-148.91 90,-138.78 90,-131.751"/>
<polygon fill="midnightblue" stroke="midnightblue" points="86.5001,-158.083 90,-168.083 93.5001,-158.083 86.5001,-158.083"/>
</g>
<!-- Node4 -->
<g id="node4" class="node"><title>Node4</title>
<g id="a_node4"><a xlink:href="Game_8hxx.html" target="_top" xlink:title="src/Game.hxx">
<polygon fill="none" stroke="black" points="48.5,-56.5 48.5,-75.5 131.5,-75.5 131.5,-56.5 48.5,-56.5"/>
<text text-anchor="middle" x="90" y="-63.5" font-family="Helvetica,sans-Serif" font-size="10.00">src/Game.hxx</text>
</a>
</g>
</g>
<!-- Node3&#45;&gt;Node4 -->
<g id="edge3" class="edge"><title>Node3&#45;&gt;Node4</title>
<path fill="none" stroke="midnightblue" d="M90,-101.805C90,-92.9102 90,-82.7798 90,-75.7511"/>
<polygon fill="midnightblue" stroke="midnightblue" points="86.5001,-102.083 90,-112.083 93.5001,-102.083 86.5001,-102.083"/>
</g>
<!-- Node5 -->
<g id="node5" class="node"><title>Node5</title>
<g id="a_node5"><a xlink:href="Game_8cxx.html" target="_top" xlink:title="src/Game.cxx">
<polygon fill="none" stroke="black" points="0,-0.5 0,-19.5 82,-19.5 82,-0.5 0,-0.5"/>
<text text-anchor="middle" x="41" y="-7.5" font-family="Helvetica,sans-Serif" font-size="10.00">src/Game.cxx</text>
</a>
</g>
</g>
<!-- Node4&#45;&gt;Node5 -->
<g id="edge4" class="edge"><title>Node4&#45;&gt;Node5</title>
<path fill="none" stroke="midnightblue" d="M74.9655,-48.4314C66.3778,-38.9673 55.9565,-27.4827 48.9408,-19.7511"/>
<polygon fill="midnightblue" stroke="midnightblue" points="72.5967,-51.0293 81.9086,-56.083 77.7807,-46.3254 72.5967,-51.0293"/>
</g>
<!-- Node6 -->
<g id="node6" class="node"><title>Node6</title>
<g id="a_node6"><a xlink:href="main_8cxx.html" target="_top" xlink:title="src/main.cxx">
<polygon fill="none" stroke="black" points="100.5,-0.5 100.5,-19.5 177.5,-19.5 177.5,-0.5 100.5,-0.5"/>
<text text-anchor="middle" x="139" y="-7.5" font-family="Helvetica,sans-Serif" font-size="10.00">src/main.cxx</text>
</a>
</g>
</g>
<!-- Node4&#45;&gt;Node6 -->
<g id="edge5" class="edge"><title>Node4&#45;&gt;Node6</title>
<path fill="none" stroke="midnightblue" d="M105.034,-48.4314C113.622,-38.9673 124.043,-27.4827 131.059,-19.7511"/>
<polygon fill="midnightblue" stroke="midnightblue" points="102.219,-46.3254 98.0914,-56.083 107.403,-51.0293 102.219,-46.3254"/>
</g>
</g>
</svg>
