<?xml version="1.0" encoding="UTF-8" standalone="no"?>
<!DOCTYPE svg PUBLIC "-//W3C//DTD SVG 1.1//EN"
 "http://www.w3.org/Graphics/SVG/1.1/DTD/svg11.dtd">
<!-- Generated by graphviz version 2.38.0 (20140413.2041)
 -->
<!-- Title: TupleType&lt; List &gt; Pages: 1 -->
<svg width="286pt" height="182pt"
 viewBox="0.00 0.00 285.50 182.00" xmlns="http://www.w3.org/2000/svg" xmlns:xlink="http://www.w3.org/1999/xlink">
<g id="graph0" class="graph" transform="scale(1 1) rotate(0) translate(4 178)">
<title>TupleType&lt; List &gt;</title>
<!-- Node1 -->
<g id="node1" class="node"><title>Node1</title>
<polygon fill="#bfbfbf" stroke="black" points="92,-116.5 92,-173.5 193,-173.5 193,-116.5 92,-116.5"/>
<text text-anchor="middle" x="142.5" y="-161.5" font-family="Helvetica,sans-Serif" font-size="10.00">TupleType&lt; List &gt;</text>
<polyline fill="none" stroke="black" points="92,-154.5 193,-154.5 "/>
<text text-anchor="middle" x="142.5" y="-142.5" font-family="Helvetica,sans-Serif" font-size="10.00"> </text>
<polyline fill="none" stroke="black" points="92,-135.5 193,-135.5 "/>
<text text-anchor="middle" x="142.5" y="-123.5" font-family="Helvetica,sans-Serif" font-size="10.00"> </text>
</g>
<!-- Node2 -->
<g id="node2" class="node"><title>Node2</title>
<g id="a_node2"><a xlink:href="structTupleType.html" target="_top" xlink:title="{TupleType\&lt; GameService\l::Types \&gt;\n||}">
<polygon fill="none" stroke="black" points="0,-0.5 0,-68.5 137,-68.5 137,-0.5 0,-0.5"/>
<text text-anchor="start" x="8" y="-56.5" font-family="Helvetica,sans-Serif" font-size="10.00">TupleType&lt; GameService</text>
<text text-anchor="middle" x="68.5" y="-45.5" font-family="Helvetica,sans-Serif" font-size="10.00">::Types &gt;</text>
<polyline fill="none" stroke="black" points="0,-38.5 137,-38.5 "/>
<text text-anchor="middle" x="68.5" y="-26.5" font-family="Helvetica,sans-Serif" font-size="10.00"> </text>
<polyline fill="none" stroke="black" points="0,-19.5 137,-19.5 "/>
<text text-anchor="middle" x="68.5" y="-7.5" font-family="Helvetica,sans-Serif" font-size="10.00"> </text>
</a>
</g>
</g>
<!-- Node1&#45;&gt;Node2 -->
<g id="edge1" class="edge"><title>Node1&#45;&gt;Node2</title>
<path fill="none" stroke="orange" d="M83.9033,-113.326C79.0535,-108.78 74.7677,-103.682 71.5,-98 66.4632,-89.2424 64.69,-78.5994 64.474,-68.5966"/>
<polygon fill="orange" stroke="orange" points="82.0033,-116.299 91.9234,-120.02 86.4887,-110.925 82.0033,-116.299"/>
<text text-anchor="middle" x="133" y="-90" font-family="Helvetica,sans-Serif" font-size="10.00"> &lt; GameService::Types &gt;</text>
</g>
<!-- Node3 -->
<g id="node3" class="node"><title>Node3</title>
<g id="a_node3"><a xlink:href="structTupleType.html" target="_top" xlink:title="{TupleType\&lt; TypeList \&gt;\n||}">
<polygon fill="none" stroke="black" points="155.5,-6 155.5,-63 277.5,-63 277.5,-6 155.5,-6"/>
<text text-anchor="middle" x="216.5" y="-51" font-family="Helvetica,sans-Serif" font-size="10.00">TupleType&lt; TypeList &gt;</text>
<polyline fill="none" stroke="black" points="155.5,-44 277.5,-44 "/>
<text text-anchor="middle" x="216.5" y="-32" font-family="Helvetica,sans-Serif" font-size="10.00"> </text>
<polyline fill="none" stroke="black" points="155.5,-25 277.5,-25 "/>
<text text-anchor="middle" x="216.5" y="-13" font-family="Helvetica,sans-Serif" font-size="10.00"> </text>
</a>
</g>
</g>
<!-- Node1&#45;&gt;Node3 -->
<g id="edge2" class="edge"><title>Node1&#45;&gt;Node3</title>
<path fill="none" stroke="orange" d="M185.944,-108.888C189.063,-105.403 191.971,-101.757 194.5,-98 201.566,-87.5032 206.622,-74.4877 210.09,-63.0559"/>
<polygon fill="orange" stroke="orange" points="183.269,-106.62 178.839,-116.244 188.304,-111.483 183.269,-106.62"/>
<text text-anchor="middle" x="233.5" y="-90" font-family="Helvetica,sans-Serif" font-size="10.00"> &lt; TypeList &gt;</text>
</g>
</g>
</svg>
