<?xml version="1.0" encoding="UTF-8" standalone="no"?>
<!DOCTYPE svg PUBLIC "-//W3C//DTD SVG 1.1//EN"
 "http://www.w3.org/Graphics/SVG/1.1/DTD/svg11.dtd">
<!-- Generated by graphviz version 2.38.0 (20140413.2041)
 -->
<!-- Title: src/util/TransitiveModel.hxx Pages: 1 -->
<svg width="599pt" height="140pt"
 viewBox="0.00 0.00 599.00 140.00" xmlns="http://www.w3.org/2000/svg" xmlns:xlink="http://www.w3.org/1999/xlink">
<g id="graph0" class="graph" transform="scale(1 1) rotate(0) translate(4 136)">
<title>src/util/TransitiveModel.hxx</title>
<!-- Node1 -->
<g id="node1" class="node"><title>Node1</title>
<polygon fill="#bfbfbf" stroke="black" points="349,-112.5 349,-131.5 492,-131.5 492,-112.5 349,-112.5"/>
<text text-anchor="middle" x="420.5" y="-119.5" font-family="Helvetica,sans-Serif" font-size="10.00">src/util/TransitiveModel.hxx</text>
</g>
<!-- Node2 -->
<g id="node2" class="node"><title>Node2</title>
<g id="a_node2"><a xlink:href="Meta_8hxx.html" target="_top" xlink:title="Meta.hxx">
<polygon fill="none" stroke="black" points="158.5,-56.5 158.5,-75.5 218.5,-75.5 218.5,-56.5 158.5,-56.5"/>
<text text-anchor="middle" x="188.5" y="-63.5" font-family="Helvetica,sans-Serif" font-size="10.00">Meta.hxx</text>
</a>
</g>
</g>
<!-- Node1&#45;&gt;Node2 -->
<g id="edge1" class="edge"><title>Node1&#45;&gt;Node2</title>
<path fill="none" stroke="midnightblue" d="M383.739,-112.444C341.511,-102.615 272.446,-86.5392 228.788,-76.3774"/>
<polygon fill="midnightblue" stroke="midnightblue" points="229.338,-72.9119 218.805,-74.0537 227.751,-79.7297 229.338,-72.9119"/>
</g>
<!-- Node7 -->
<g id="node7" class="node"><title>Node7</title>
<g id="a_node7"><a xlink:href="Observer_8hxx.html" target="_top" xlink:title="Observer.hxx">
<polygon fill="none" stroke="black" points="280,-56.5 280,-75.5 359,-75.5 359,-56.5 280,-56.5"/>
<text text-anchor="middle" x="319.5" y="-63.5" font-family="Helvetica,sans-Serif" font-size="10.00">Observer.hxx</text>
</a>
</g>
</g>
<!-- Node1&#45;&gt;Node7 -->
<g id="edge6" class="edge"><title>Node1&#45;&gt;Node7</title>
<path fill="none" stroke="midnightblue" d="M404.273,-112.324C388.149,-103.703 363.2,-90.3643 344.536,-80.3855"/>
<polygon fill="midnightblue" stroke="midnightblue" points="346.156,-77.283 335.687,-75.6545 342.856,-83.456 346.156,-77.283"/>
</g>
<!-- Node10 -->
<g id="node10" class="node"><title>Node10</title>
<polygon fill="none" stroke="#bfbfbf" points="377.5,-56.5 377.5,-75.5 463.5,-75.5 463.5,-56.5 377.5,-56.5"/>
<text text-anchor="middle" x="420.5" y="-63.5" font-family="Helvetica,sans-Serif" font-size="10.00">unordered_set</text>
</g>
<!-- Node1&#45;&gt;Node10 -->
<g id="edge9" class="edge"><title>Node1&#45;&gt;Node10</title>
<path fill="none" stroke="midnightblue" d="M420.5,-112.083C420.5,-105.006 420.5,-94.8611 420.5,-85.9865"/>
<polygon fill="midnightblue" stroke="midnightblue" points="424,-85.751 420.5,-75.7511 417,-85.7511 424,-85.751"/>
</g>
<!-- Node11 -->
<g id="node11" class="node"><title>Node11</title>
<polygon fill="none" stroke="#bfbfbf" points="481.5,-56.5 481.5,-75.5 519.5,-75.5 519.5,-56.5 481.5,-56.5"/>
<text text-anchor="middle" x="500.5" y="-63.5" font-family="Helvetica,sans-Serif" font-size="10.00">map</text>
</g>
<!-- Node1&#45;&gt;Node11 -->
<g id="edge10" class="edge"><title>Node1&#45;&gt;Node11</title>
<path fill="none" stroke="midnightblue" d="M433.353,-112.324C445.716,-103.979 464.63,-91.2122 479.237,-81.3524"/>
<polygon fill="midnightblue" stroke="midnightblue" points="481.348,-84.1503 487.679,-75.6545 477.432,-78.3483 481.348,-84.1503"/>
</g>
<!-- Node12 -->
<g id="node12" class="node"><title>Node12</title>
<polygon fill="none" stroke="#bfbfbf" points="538,-56.5 538,-75.5 591,-75.5 591,-56.5 538,-56.5"/>
<text text-anchor="middle" x="564.5" y="-63.5" font-family="Helvetica,sans-Serif" font-size="10.00">ciso646</text>
</g>
<!-- Node1&#45;&gt;Node12 -->
<g id="edge11" class="edge"><title>Node1&#45;&gt;Node12</title>
<path fill="none" stroke="midnightblue" d="M443.317,-112.444C467.332,-103.438 505.329,-89.1891 532.369,-79.049"/>
<polygon fill="midnightblue" stroke="midnightblue" points="533.655,-82.3049 541.79,-75.5164 531.197,-75.7506 533.655,-82.3049"/>
</g>
<!-- Node3 -->
<g id="node3" class="node"><title>Node3</title>
<polygon fill="none" stroke="#bfbfbf" points="0,-0.5 0,-19.5 59,-19.5 59,-0.5 0,-0.5"/>
<text text-anchor="middle" x="29.5" y="-7.5" font-family="Helvetica,sans-Serif" font-size="10.00">iostream</text>
</g>
<!-- Node2&#45;&gt;Node3 -->
<g id="edge2" class="edge"><title>Node2&#45;&gt;Node3</title>
<path fill="none" stroke="midnightblue" d="M163.306,-56.4435C136.557,-47.3591 94.0974,-32.9388 64.1948,-22.7831"/>
<polygon fill="midnightblue" stroke="midnightblue" points="65.1705,-19.4182 54.5762,-19.5164 62.9194,-26.0464 65.1705,-19.4182"/>
</g>
<!-- Node4 -->
<g id="node4" class="node"><title>Node4</title>
<polygon fill="none" stroke="#bfbfbf" points="77.5,-0.5 77.5,-19.5 145.5,-19.5 145.5,-0.5 77.5,-0.5"/>
<text text-anchor="middle" x="111.5" y="-7.5" font-family="Helvetica,sans-Serif" font-size="10.00">type_traits</text>
</g>
<!-- Node2&#45;&gt;Node4 -->
<g id="edge3" class="edge"><title>Node2&#45;&gt;Node4</title>
<path fill="none" stroke="midnightblue" d="M176.129,-56.324C164.342,-48.0577 146.368,-35.4527 132.364,-25.6322"/>
<polygon fill="midnightblue" stroke="midnightblue" points="134.038,-22.5307 123.841,-19.6545 130.018,-28.2619 134.038,-22.5307"/>
</g>
<!-- Node5 -->
<g id="node5" class="node"><title>Node5</title>
<polygon fill="none" stroke="#bfbfbf" points="163.5,-0.5 163.5,-19.5 213.5,-19.5 213.5,-0.5 163.5,-0.5"/>
<text text-anchor="middle" x="188.5" y="-7.5" font-family="Helvetica,sans-Serif" font-size="10.00">variant</text>
</g>
<!-- Node2&#45;&gt;Node5 -->
<g id="edge4" class="edge"><title>Node2&#45;&gt;Node5</title>
<path fill="none" stroke="midnightblue" d="M188.5,-56.083C188.5,-49.0059 188.5,-38.8611 188.5,-29.9865"/>
<polygon fill="midnightblue" stroke="midnightblue" points="192,-29.751 188.5,-19.7511 185,-29.7511 192,-29.751"/>
</g>
<!-- Node6 -->
<g id="node6" class="node"><title>Node6</title>
<polygon fill="none" stroke="#bfbfbf" points="232,-0.5 232,-19.5 273,-19.5 273,-0.5 232,-0.5"/>
<text text-anchor="middle" x="252.5" y="-7.5" font-family="Helvetica,sans-Serif" font-size="10.00">tuple</text>
</g>
<!-- Node2&#45;&gt;Node6 -->
<g id="edge5" class="edge"><title>Node2&#45;&gt;Node6</title>
<path fill="none" stroke="midnightblue" d="M198.783,-56.324C208.336,-48.2631 222.78,-36.0765 234.284,-26.3695"/>
<polygon fill="midnightblue" stroke="midnightblue" points="236.644,-28.9577 242.03,-19.8339 232.13,-23.6076 236.644,-28.9577"/>
</g>
<!-- Node8 -->
<g id="node8" class="node"><title>Node8</title>
<polygon fill="none" stroke="#bfbfbf" points="291,-0.5 291,-19.5 348,-19.5 348,-0.5 291,-0.5"/>
<text text-anchor="middle" x="319.5" y="-7.5" font-family="Helvetica,sans-Serif" font-size="10.00">memory</text>
</g>
<!-- Node7&#45;&gt;Node8 -->
<g id="edge7" class="edge"><title>Node7&#45;&gt;Node8</title>
<path fill="none" stroke="midnightblue" d="M319.5,-56.083C319.5,-49.0059 319.5,-38.8611 319.5,-29.9865"/>
<polygon fill="midnightblue" stroke="midnightblue" points="323,-29.751 319.5,-19.7511 316,-29.7511 323,-29.751"/>
</g>
<!-- Node9 -->
<g id="node9" class="node"><title>Node9</title>
<polygon fill="none" stroke="#bfbfbf" points="366,-0.5 366,-19.5 437,-19.5 437,-0.5 366,-0.5"/>
<text text-anchor="middle" x="401.5" y="-7.5" font-family="Helvetica,sans-Serif" font-size="10.00">forward_list</text>
</g>
<!-- Node7&#45;&gt;Node9 -->
<g id="edge8" class="edge"><title>Node7&#45;&gt;Node9</title>
<path fill="none" stroke="midnightblue" d="M332.675,-56.324C345.347,-47.979 364.733,-35.2122 379.706,-25.3524"/>
<polygon fill="midnightblue" stroke="midnightblue" points="381.931,-28.0776 388.358,-19.6545 378.081,-22.2313 381.931,-28.0776"/>
</g>
</g>
</svg>
